<?xml version="1.0" standalone="no"?>
<!DOCTYPE svg PUBLIC "-//W3C//DTD SVG 20010904//EN"
 "http://www.w3.org/TR/2001/REC-SVG-20010904/DTD/svg10.dtd">
<svg version="1.0" xmlns="http://www.w3.org/2000/svg"
 width="305.000000pt" height="300.000000pt" viewBox="0 0 305.000000 300.000000"
 preserveAspectRatio="xMidYMid meet">

<g transform="translate(0.000000,300.000000) scale(0.100000,-0.100000)"
fill="#000000" stroke="none">
<path d="M1307 2915 c-491 -80 -890 -373 -1096 -806 -93 -194 -130 -343 -138
-559 -9 -234 33 -440 133 -649 80 -169 152 -270 284 -401 209 -209 448 -338
743 -402 147 -32 437 -32 583 0 302 65 534 191 744 401 129 130 205 237 279
392 93 194 130 343 138 559 9 234 -33 440 -133 649 -80 169 -152 270 -284 401
-207 207 -450 339 -738 401 -129 27 -390 34 -515 14z m1066 -657 c138 -185
212 -366 237 -588 14 -119 12 -186 -6 -308 -65 -441 -368 -802 -764 -911 -335
-92 -698 -18 -995 201 -187 138 -323 348 -392 605 -25 90 -27 114 -27 288 0
174 2 198 26 287 46 167 129 323 235 438 l48 51 109 -116 c78 -83 107 -121
100 -130 -5 -7 -29 -36 -52 -66 -56 -68 -106 -167 -134 -266 -30 -103 -32
-302 -4 -408 30 -116 105 -260 177 -339 105 -115 271 -208 428 -242 87 -18
259 -18 339 1 236 56 439 234 530 465 46 116 57 178 56 325 -1 123 -4 151 -28
230 -32 105 -73 186 -138 272 l-46 62 116 110 c64 61 120 110 123 111 4 0 31
-33 62 -72z m-1005 -304 c12 -8 22 -24 22 -35 0 -22 15 -24 50 -4 14 8 50 14
80 15 46 0 66 -6 109 -32 30 -18 65 -48 79 -66 l25 -33 -79 7 c-65 6 -83 11
-101 30 -12 13 -31 24 -43 24 -23 0 -57 -49 -66 -97 -4 -22 -14 -35 -35 -44
-61 -25 -113 -104 -134 -201 -3 -17 -12 -28 -22 -28 -14 0 -15 11 -10 83 6 85
35 180 69 230 19 26 19 27 1 34 -54 19 -70 76 -33 113 24 24 57 26 88 4z m299
-179 c43 -8 101 -26 128 -40 28 -13 51 -20 53 -15 10 29 46 60 70 60 33 0 72
-36 72 -67 0 -26 -32 -63 -55 -63 -19 0 -19 -10 -1 -35 59 -85 27 -209 -77
-294 l-29 -24 7 79 c6 65 11 83 31 102 13 13 24 32 24 43 0 21 -47 54 -90 64
-16 4 -37 24 -57 54 -24 37 -46 56 -94 80 -34 17 -77 31 -96 31 -26 0 -33 4
-33 20 0 25 35 26 147 5z m-443 -152 c-5 -66 -10 -81 -30 -96 -49 -38 -26 -80
58 -106 27 -9 44 -24 63 -57 30 -51 99 -101 154 -110 60 -10 71 -15 71 -31 0
-30 -196 4 -287 51 l-47 23 -21 -31 c-27 -40 -68 -46 -101 -15 -13 12 -24 33
-24 46 0 28 33 63 60 63 19 0 19 1 -2 42 -27 51 -28 129 -4 177 17 31 99 121
111 121 3 0 3 -35 -1 -77z m596 -165 c0 -65 -23 -166 -50 -218 -24 -47 -25
-60 -6 -60 19 0 46 -39 46 -66 0 -26 -43 -64 -72 -64 -11 0 -32 13 -46 28
l-27 29 -40 -18 c-93 -42 -222 -2 -280 88 l-17 26 78 -8 c64 -5 84 -11 105
-31 14 -13 33 -24 42 -24 19 0 53 50 63 92 4 20 18 34 44 48 67 34 130 134
130 207 0 14 6 23 15 23 11 0 15 -12 15 -52z"/>
</g>
</svg>
